<svg width="300" height="300" viewBox="0 0 300 300" fill="none" xmlns="http://www.w3.org/2000/svg">
<path d="M84 75C84 54.0132 101.013 37 122 37H177C197.987 37 215 54.0132 215 75C215 95.9868 197.987 113 177 113H122C101.013 113 84 95.9868 84 75Z" fill="white"/>
<g filter="url(#filter0_bii_2658_2530)">
<path d="M58 122.194C58 87.3094 86.2796 59.0298 121.164 59.0298H178.836C213.72 59.0298 242 87.3094 242 122.194V201.836C242 236.72 213.72 265 178.836 265H121.164C86.2796 265 58 236.72 58 201.836V122.194Z" fill="white" fill-opacity="0.03"/>
</g>
<g filter="url(#filter1_bi_2658_2530)">
<path d="M197.375 101.597C197.375 127.761 176.166 148.97 150.002 148.97C123.839 148.97 102.629 127.761 102.629 101.597" stroke="white" stroke-opacity="0.1" stroke-width="17.8507" stroke-linecap="round"/>
</g>
<defs>
<filter id="filter0_bii_2658_2530" x="-1.04478" y="-0.0149498" width="302.09" height="324.06" filterUnits="userSpaceOnUse" color-interpolation-filters="sRGB">
<feFlood flood-opacity="0" result="BackgroundImageFix"/>
<feGaussianBlur in="BackgroundImageFix" stdDeviation="29.5224"/>
<feComposite in2="SourceAlpha" operator="in" result="effect1_backgroundBlur_2658_2530"/>
<feBlend mode="normal" in="SourceGraphic" in2="effect1_backgroundBlur_2658_2530" result="shape"/>
<feColorMatrix in="SourceAlpha" type="matrix" values="0 0 0 0 0 0 0 0 0 0 0 0 0 0 0 0 0 0 127 0" result="hardAlpha"/>
<feOffset dy="2.74627"/>
<feGaussianBlur stdDeviation="1.37313"/>
<feComposite in2="hardAlpha" operator="arithmetic" k2="-1" k3="1"/>
<feColorMatrix type="matrix" values="0 0 0 0 1 0 0 0 0 1 0 0 0 0 1 0 0 0 0.15 0"/>
<feBlend mode="normal" in2="shape" result="effect2_innerShadow_2658_2530"/>
<feColorMatrix in="SourceAlpha" type="matrix" values="0 0 0 0 0 0 0 0 0 0 0 0 0 0 0 0 0 0 127 0" result="hardAlpha"/>
<feOffset/>
<feGaussianBlur stdDeviation="23.3433"/>
<feComposite in2="hardAlpha" operator="arithmetic" k2="-1" k3="1"/>
<feColorMatrix type="matrix" values="0 0 0 0 1 0 0 0 0 1 0 0 0 0 1 0 0 0 0.05 0"/>
<feBlend mode="normal" in2="effect2_innerShadow_2658_2530" result="effect3_innerShadow_2658_2530"/>
</filter>
<filter id="filter1_bi_2658_2530" x="33.2852" y="32.2538" width="233.433" height="186.06" filterUnits="userSpaceOnUse" color-interpolation-filters="sRGB">
<feFlood flood-opacity="0" result="BackgroundImageFix"/>
<feGaussianBlur in="BackgroundImageFix" stdDeviation="30.209"/>
<feComposite in2="SourceAlpha" operator="in" result="effect1_backgroundBlur_2658_2530"/>
<feBlend mode="normal" in="SourceGraphic" in2="effect1_backgroundBlur_2658_2530" result="shape"/>
<feColorMatrix in="SourceAlpha" type="matrix" values="0 0 0 0 0 0 0 0 0 0 0 0 0 0 0 0 0 0 127 0" result="hardAlpha"/>
<feOffset dy="1.37313"/>
<feGaussianBlur stdDeviation="0.686567"/>
<feComposite in2="hardAlpha" operator="arithmetic" k2="-1" k3="1"/>
<feColorMatrix type="matrix" values="0 0 0 0 1 0 0 0 0 1 0 0 0 0 1 0 0 0 0.3 0"/>
<feBlend mode="normal" in2="shape" result="effect2_innerShadow_2658_2530"/>
</filter>
</defs>
</svg>
