<svg width="32" height="32" viewBox="0 0 32 32" fill="none" xmlns="http://www.w3.org/2000/svg">
<path d="M16.0013 2.66663C8.65464 2.66663 2.66797 8.65329 2.66797 16C2.66797 23.3466 8.65464 29.3333 16.0013 29.3333C23.348 29.3333 29.3346 23.3466 29.3346 16C29.3346 8.65329 23.348 2.66663 16.0013 2.66663ZM22.3746 12.9333L14.8146 20.4933C14.628 20.68 14.3746 20.7866 14.108 20.7866C13.8413 20.7866 13.588 20.68 13.4013 20.4933L9.62797 16.72C9.2413 16.3333 9.2413 15.6933 9.62797 15.3066C10.0146 14.92 10.6546 14.92 11.0413 15.3066L14.108 18.3733L20.9613 11.52C21.348 11.1333 21.988 11.1333 22.3746 11.52C22.7613 11.9066 22.7613 12.5333 22.3746 12.9333Z" fill="#0085FF"/>
</svg>
