<svg width="32" height="32" viewBox="0 0 32 32" fill="none" xmlns="http://www.w3.org/2000/svg">
<path d="M21.588 2.66663H10.4146C5.5613 2.66663 2.66797 5.55996 2.66797 10.4133V21.5733C2.66797 26.44 5.5613 29.3333 10.4146 29.3333H21.5746C26.428 29.3333 29.3213 26.44 29.3213 21.5866V10.4133C29.3346 5.55996 26.4413 2.66663 21.588 2.66663ZM23.0146 13.28L19.9346 17.2533C19.548 17.7466 19.0013 18.0666 18.3746 18.1333C17.748 18.2133 17.1346 18.04 16.6413 17.6533L14.2013 15.7333C14.108 15.6533 14.0013 15.6533 13.948 15.6666C13.8946 15.6666 13.8013 15.6933 13.7213 15.8L10.548 19.92C10.348 20.1733 10.0546 20.3066 9.7613 20.3066C9.54797 20.3066 9.33464 20.24 9.14797 20.0933C8.70797 19.76 8.62797 19.1333 8.9613 18.6933L12.1346 14.5733C12.5213 14.08 13.068 13.76 13.6946 13.68C14.308 13.6 14.9346 13.7733 15.428 14.16L17.868 16.08C17.9613 16.16 18.0546 16.16 18.1213 16.1466C18.1746 16.1466 18.268 16.12 18.348 16.0133L21.428 12.04C21.7613 11.6 22.4013 11.52 22.828 11.8666C23.268 12.2266 23.348 12.8533 23.0146 13.28Z" fill="#0085FF"/>
</svg>
