<svg width="32" height="32" viewBox="0 0 32 32" fill="none" xmlns="http://www.w3.org/2000/svg">
<path d="M22.2008 5.14661H13.2141V9.17327C13.2141 9.69327 12.7875 10.1066 12.2808 10.1066C11.7741 10.1066 11.3475 9.69327 11.3475 9.17327V5.14661H9.80081C4.53414 5.14661 2.80081 6.71994 2.68081 11.6399C2.66747 11.8799 2.77414 12.1333 2.94747 12.3066C3.12081 12.4933 3.34747 12.5866 3.61414 12.5866C5.48081 12.5866 7.01414 14.1333 7.01414 15.9999C7.01414 17.8666 5.48081 19.4133 3.61414 19.4133C3.36081 19.4133 3.12081 19.5066 2.94747 19.6933C2.77414 19.8666 2.66747 20.1199 2.68081 20.3599C2.80081 25.2799 4.53414 26.8533 9.80081 26.8533H11.3475V22.8266C11.3475 22.3066 11.7741 21.8933 12.2808 21.8933C12.7875 21.8933 13.2141 22.3066 13.2141 22.8266V26.8533H22.2008C27.6675 26.8533 29.3341 25.1866 29.3341 19.7199V12.2799C29.3341 6.81327 27.6675 5.14661 22.2008 5.14661ZM24.6275 15.8666L23.3875 17.0666C23.3341 17.1066 23.3208 17.1866 23.3341 17.2533L23.6275 18.9466C23.6808 19.2533 23.5608 19.5733 23.2941 19.7599C23.0408 19.9466 22.7075 19.9733 22.4275 19.8266L20.8941 19.0266C20.8408 18.9999 20.7608 18.9999 20.7075 19.0266L19.1741 19.8266C19.0541 19.8933 18.9208 19.9199 18.7875 19.9199C18.6141 19.9199 18.4541 19.8666 18.3075 19.7599C18.0541 19.5733 17.9208 19.2666 17.9741 18.9466L18.2675 17.2533C18.2808 17.1866 18.2541 17.1199 18.2141 17.0666L16.9741 15.8666C16.7475 15.6533 16.6675 15.3199 16.7608 15.0266C16.8541 14.7199 17.1075 14.5066 17.4275 14.4666L19.1341 14.2133C19.2008 14.1999 19.2541 14.1599 19.2941 14.1066L20.0541 12.5599C20.2008 12.2799 20.4808 12.1066 20.8008 12.1066C21.1208 12.1066 21.4008 12.2799 21.5341 12.5599L22.2941 14.1066C22.3208 14.1733 22.3741 14.2133 22.4408 14.2133L24.1475 14.4666C24.4675 14.5066 24.7208 14.7333 24.8141 15.0266C24.9341 15.3199 24.8541 15.6399 24.6275 15.8666Z" fill="#0085FF"/>
</svg>
