<svg width="32" height="32" viewBox="0 0 32 32" fill="none" xmlns="http://www.w3.org/2000/svg">
<path d="M22.668 3.23999H9.33464C5.33464 3.23999 2.66797 5.90666 2.66797 9.90666V17.9067C2.66797 21.9067 5.33464 24.5733 9.33464 24.5733V27.4133C9.33464 28.48 10.5213 29.12 11.4013 28.52L17.3346 24.5733H22.668C26.668 24.5733 29.3346 21.9067 29.3346 17.9067V9.90666C29.3346 5.90666 26.668 3.23999 22.668 3.23999ZM16.0013 19.4667C15.4413 19.4667 15.0013 19.0133 15.0013 18.4667C15.0013 17.92 15.4413 17.4667 16.0013 17.4667C16.5613 17.4667 17.0013 17.92 17.0013 18.4667C17.0013 19.0133 16.5613 19.4667 16.0013 19.4667ZM17.6813 13.9333C17.1613 14.28 17.0013 14.5067 17.0013 14.88V15.16C17.0013 15.7067 16.548 16.16 16.0013 16.16C15.4546 16.16 15.0013 15.7067 15.0013 15.16V14.88C15.0013 13.3333 16.1346 12.5733 16.5613 12.28C17.0546 11.9467 17.2146 11.72 17.2146 11.3733C17.2146 10.7067 16.668 10.16 16.0013 10.16C15.3346 10.16 14.788 10.7067 14.788 11.3733C14.788 11.92 14.3346 12.3733 13.788 12.3733C13.2413 12.3733 12.788 11.92 12.788 11.3733C12.788 9.59999 14.228 8.15999 16.0013 8.15999C17.7746 8.15999 19.2146 9.59999 19.2146 11.3733C19.2146 12.8933 18.0946 13.6533 17.6813 13.9333Z" fill="#0085FF"/>
</svg>
