<svg width="32" height="32" viewBox="0 0 32 32" fill="none" xmlns="http://www.w3.org/2000/svg">
<path d="M24.6285 22.44L25.1485 26.6533C25.2818 27.76 24.0951 28.5333 23.1485 27.96L18.5351 25.2133C18.2151 25.0266 18.1351 24.6266 18.3085 24.3066C18.9751 23.08 19.3351 21.6933 19.3351 20.3066C19.3351 15.4266 15.1485 11.4533 10.0018 11.4533C8.94848 11.4533 7.92181 11.6133 6.96181 11.9333C6.46848 12.0933 5.98848 11.64 6.10848 11.1333C7.32181 6.27996 11.9885 2.66663 17.5618 2.66663C24.0685 2.66663 29.3351 7.58663 29.3351 13.6533C29.3351 17.2533 27.4818 20.44 24.6285 22.44Z" fill="#0085FF"/>
<path d="M17.3346 20.3067C17.3346 21.8934 16.748 23.36 15.7613 24.52C14.4413 26.12 12.348 27.1467 10.0013 27.1467L6.5213 29.2134C5.93464 29.5734 5.18797 29.08 5.26797 28.4L5.6013 25.7734C3.81464 24.5334 2.66797 22.5467 2.66797 20.3067C2.66797 17.96 3.9213 15.8934 5.8413 14.6667C7.02797 13.8934 8.45464 13.4534 10.0013 13.4534C14.0546 13.4534 17.3346 16.52 17.3346 20.3067Z" fill="#0085FF"/>
</svg>
