<svg width="33" height="32" viewBox="0 0 33 32" fill="none" xmlns="http://www.w3.org/2000/svg">
<path d="M28.9013 14.4533C29.4213 14.4533 29.8346 14.0399 29.8346 13.5199V12.2799C29.8346 6.81327 28.168 5.14661 22.7013 5.14661H10.3013C4.83464 5.14661 3.16797 6.81327 3.16797 12.2799V12.9066C3.16797 13.4266 3.5813 13.8399 4.1013 13.8399C5.3013 13.8399 6.27464 14.8133 6.27464 16.0133C6.27464 17.2133 5.3013 18.1733 4.1013 18.1733C3.5813 18.1733 3.16797 18.5866 3.16797 19.1066V19.7333C3.16797 25.1999 4.83464 26.8666 10.3013 26.8666H22.7013C28.168 26.8666 29.8346 25.1999 29.8346 19.7333C29.8346 19.2133 29.4213 18.7999 28.9013 18.7999C27.7013 18.7999 26.728 17.8266 26.728 16.6266C26.728 15.4266 27.7013 14.4533 28.9013 14.4533ZM12.5013 11.8399C13.2346 11.8399 13.8346 12.4399 13.8346 13.1733C13.8346 13.9066 13.248 14.5066 12.5013 14.5066C11.768 14.5066 11.168 13.9066 11.168 13.1733C11.168 12.4399 11.7546 11.8399 12.5013 11.8399ZM20.5013 21.1733C19.7546 21.1733 19.1546 20.5733 19.1546 19.8399C19.1546 19.1066 19.7546 18.5066 20.488 18.5066C21.2213 18.5066 21.8213 19.1066 21.8213 19.8399C21.8213 20.5733 21.248 21.1733 20.5013 21.1733ZM21.7013 12.6399L12.728 21.6133C12.528 21.8133 12.2746 21.9066 12.0213 21.9066C11.768 21.9066 11.5146 21.8133 11.3146 21.6133C10.928 21.2266 10.928 20.5866 11.3146 20.1999L20.288 11.2266C20.6746 10.8399 21.3146 10.8399 21.7013 11.2266C22.088 11.6133 22.088 12.2533 21.7013 12.6399Z" fill="#0085FF"/>
</svg>
