<svg width="33" height="32" viewBox="0 0 33 32" fill="none" xmlns="http://www.w3.org/2000/svg">
<path d="M26.113 8.48001C24.7263 5.68001 22.0463 3.61335 18.9396 2.93335C15.6863 2.21335 12.353 2.98668 9.8063 5.04001C7.2463 7.08001 5.79297 10.1333 5.79297 13.4C5.79297 16.8533 7.85964 20.4667 10.9796 22.56V23.6667C10.9663 24.04 10.953 24.6133 11.4063 25.08C11.873 25.56 12.5663 25.6133 13.113 25.6133H19.953C20.673 25.6133 21.2196 25.4133 21.593 25.04C22.0996 24.52 22.0863 23.8533 22.073 23.4933V22.56C26.2063 19.7733 28.8063 13.8933 26.113 8.48001Z" fill="#0085FF"/>
<path d="M20.8456 29.3334C20.7656 29.3334 20.6722 29.32 20.5922 29.2934C17.9122 28.5334 15.0989 28.5334 12.4189 29.2934C11.9256 29.4267 11.4056 29.1467 11.2722 28.6534C11.1256 28.16 11.4189 27.64 11.9122 27.5067C14.9256 26.6534 18.0989 26.6534 21.1122 27.5067C21.6056 27.6534 21.8989 28.16 21.7522 28.6534C21.6189 29.0667 21.2456 29.3334 20.8456 29.3334Z" fill="#0085FF"/>
</svg>
