<svg width="20" height="20" viewBox="0 0 20 20" fill="none" xmlns="http://www.w3.org/2000/svg">
<path d="M10.0013 1.66675C5.4013 1.66675 1.66797 5.40008 1.66797 10.0001C1.66797 14.6001 5.4013 18.3334 10.0013 18.3334C14.6013 18.3334 18.3346 14.6001 18.3346 10.0001C18.3346 5.40008 14.6013 1.66675 10.0013 1.66675ZM13.3596 10.4417L10.8596 12.9417C10.7346 13.0667 10.5763 13.1251 10.418 13.1251C10.2596 13.1251 10.1013 13.0667 9.9763 12.9417C9.73464 12.7001 9.73464 12.3001 9.9763 12.0584L11.4096 10.6251H7.08464C6.74297 10.6251 6.45964 10.3417 6.45964 10.0001C6.45964 9.65842 6.74297 9.37508 7.08464 9.37508H11.4096L9.9763 7.94175C9.73464 7.70008 9.73464 7.30008 9.9763 7.05842C10.218 6.81675 10.618 6.81675 10.8596 7.05842L13.3596 9.55842C13.6013 9.80008 13.6013 10.2001 13.3596 10.4417Z" fill="white"/>
</svg>
