<svg width="160" height="15" viewBox="0 0 160 15" fill="none" xmlns="http://www.w3.org/2000/svg">
<path d="M0.54 14.5V0.499999H6.76C7.54667 0.499999 8.26 0.693333 8.9 1.08C9.54 1.45333 10.04 1.98 10.4 2.66C10.7733 3.34 10.96 4.11333 10.96 4.98C10.96 5.84667 10.7733 6.62667 10.4 7.32C10.04 8 9.54 8.53333 8.9 8.92C8.26 9.29333 7.54667 9.48 6.76 9.48H2.64V14.5H0.54ZM6.7 7.48C7.3 7.48 7.80667 7.25333 8.22 6.8C8.64667 6.33333 8.86 5.72667 8.86 4.98C8.86 4.23333 8.65333 3.63333 8.24 3.18C7.82667 2.72667 7.31333 2.5 6.7 2.5H2.64V7.48H6.7ZM15.5308 14.7C14.8241 14.7 14.1974 14.5667 13.6508 14.3C13.1041 14.02 12.6841 13.6467 12.3908 13.18C12.0974 12.7 11.9508 12.1667 11.9508 11.58C11.9508 10.5933 12.2908 9.80667 12.9708 9.22C13.6508 8.63333 14.6641 8.34 16.0108 8.34H18.5708V8.08C18.5708 7.42667 18.3774 6.90667 17.9908 6.52C17.6174 6.13333 17.1041 5.94 16.4508 5.94C15.8241 5.94 15.3174 6.08667 14.9308 6.38C14.5441 6.66 14.3174 7 14.2508 7.4H12.3108C12.3508 6.85333 12.5374 6.34 12.8708 5.86C13.2041 5.36667 13.6774 4.97333 14.2908 4.68C14.9041 4.38667 15.6241 4.24 16.4508 4.24C17.7041 4.24 18.6974 4.58667 19.4308 5.28C20.1774 5.97333 20.5508 6.90667 20.5508 8.08V14.5H18.8308L18.6308 13.4H18.5308C18.3041 13.7333 17.9241 14.0333 17.3908 14.3C16.8574 14.5667 16.2374 14.7 15.5308 14.7ZM15.7308 13C16.6108 13 17.3041 12.76 17.8108 12.28C18.3174 11.7867 18.5708 11.12 18.5708 10.28V9.92H16.1508C15.4041 9.92 14.8441 10.0667 14.4708 10.36C14.1108 10.6533 13.9308 11.0333 13.9308 11.5C13.9308 11.9533 14.0841 12.32 14.3908 12.6C14.7108 12.8667 15.1574 13 15.7308 13ZM23.1916 14.5V4.44H24.8916L25.0916 5.38H25.1916C25.3916 5.07333 25.6316 4.84 25.9116 4.68C26.2049 4.52 26.5916 4.44 27.0716 4.44H28.8316V6.3H27.2516C26.5849 6.3 26.0716 6.48 25.7116 6.84C25.3516 7.2 25.1716 7.71333 25.1716 8.38V14.5H23.1916ZM33.3381 14.5C32.6581 14.5 32.1248 14.32 31.7381 13.96C31.3648 13.5867 31.1781 13.0867 31.1781 12.46V6.3H29.5781V4.44H31.1781V1.52H33.1581V4.44H35.4581V6.3H33.1581V12.06C33.1581 12.4733 33.3648 12.68 33.7781 12.68H35.4581V14.5H33.3381ZM37.7033 14.5V4.44H39.4033L39.6033 5.48H39.7033C39.9566 5.16 40.3433 4.87333 40.8633 4.62C41.3833 4.36667 41.9833 4.24 42.6633 4.24C43.4366 4.24 44.1233 4.42 44.7233 4.78C45.3366 5.12667 45.8099 5.62 46.1433 6.26C46.4899 6.9 46.6633 7.63333 46.6633 8.46V14.5H44.6833V8.62C44.6833 7.9 44.4499 7.3 43.9833 6.82C43.5166 6.34 42.9366 6.1 42.2433 6.1C41.7766 6.1 41.3433 6.21333 40.9433 6.44C40.5566 6.66667 40.2499 6.97333 40.0233 7.36C39.7966 7.74667 39.6833 8.16667 39.6833 8.62V14.5H37.7033ZM53.7048 14.7C52.7715 14.7 51.9248 14.48 51.1648 14.04C50.4048 13.5867 49.8048 12.9667 49.3648 12.18C48.9382 11.38 48.7248 10.4733 48.7248 9.46C48.7248 8.46 48.9382 7.56667 49.3648 6.78C49.8048 5.98 50.4048 5.36 51.1648 4.92C51.9248 4.46667 52.7715 4.24 53.7048 4.24C54.5982 4.24 55.4048 4.45333 56.1248 4.88C56.8582 5.30667 57.4315 5.89333 57.8448 6.64C58.2715 7.38667 58.4848 8.22667 58.4848 9.16C58.4848 9.62667 58.4515 9.98 58.3848 10.22H50.7048C50.7982 11.0333 51.1248 11.7 51.6848 12.22C52.2448 12.7267 52.9182 12.98 53.7048 12.98C54.2648 12.98 54.7582 12.8533 55.1848 12.6C55.6115 12.3467 55.9315 12.02 56.1448 11.62H58.2048C57.8982 12.5133 57.3582 13.2533 56.5848 13.84C55.8115 14.4133 54.8515 14.7 53.7048 14.7ZM56.5248 8.7C56.4582 7.9 56.1648 7.24 55.6448 6.72C55.1248 6.2 54.4782 5.94 53.7048 5.94C52.9048 5.94 52.2315 6.2 51.6848 6.72C51.1382 7.24 50.8115 7.9 50.7048 8.7H56.5248ZM60.6134 14.5V4.44H62.3134L62.5134 5.38H62.6134C62.8134 5.07333 63.0534 4.84 63.3334 4.68C63.6268 4.52 64.0134 4.44 64.4934 4.44H66.2534V6.3H64.6734C64.0068 6.3 63.4934 6.48 63.1334 6.84C62.7734 7.2 62.5934 7.71333 62.5934 8.38V14.5H60.6134ZM77.3327 13.38H75.4327V9.6H71.9527V7.8H75.4327V4.02H77.3327V7.8H80.8127V9.6H77.3327V13.38ZM93.7967 9.36L98.9567 14.5H96.3367L91.2567 9.38H90.2767V14.5H88.1767V0.499999H94.4367C95.2234 0.499999 95.9301 0.693333 96.5567 1.08C97.1967 1.45333 97.6967 1.98 98.0567 2.66C98.4301 3.34 98.6167 4.10667 98.6167 4.96C98.6167 5.8 98.4367 6.55333 98.0767 7.22C97.7167 7.88667 97.2301 8.41333 96.6167 8.8C96.0034 9.17333 95.3367 9.36 94.6167 9.36H93.7967ZM90.2767 7.44H94.3767C94.9767 7.44 95.4834 7.21333 95.8967 6.76C96.3101 6.29333 96.5167 5.69333 96.5167 4.96C96.5167 4.22667 96.3101 3.62667 95.8967 3.16C95.4834 2.69333 94.9767 2.46 94.3767 2.46H90.2767V7.44ZM105.053 14.7C104.119 14.7 103.273 14.48 102.513 14.04C101.753 13.5867 101.153 12.9667 100.713 12.18C100.286 11.38 100.073 10.4733 100.073 9.46C100.073 8.46 100.286 7.56667 100.713 6.78C101.153 5.98 101.753 5.36 102.513 4.92C103.273 4.46667 104.119 4.24 105.053 4.24C105.946 4.24 106.753 4.45333 107.473 4.88C108.206 5.30667 108.779 5.89333 109.193 6.64C109.619 7.38667 109.833 8.22667 109.833 9.16C109.833 9.62667 109.799 9.98 109.733 10.22H102.053C102.146 11.0333 102.473 11.7 103.033 12.22C103.593 12.7267 104.266 12.98 105.053 12.98C105.613 12.98 106.106 12.8533 106.533 12.6C106.959 12.3467 107.279 12.02 107.493 11.62H109.553C109.246 12.5133 108.706 13.2533 107.933 13.84C107.159 14.4133 106.199 14.7 105.053 14.7ZM107.873 8.7C107.806 7.9 107.513 7.24 106.993 6.72C106.473 6.2 105.826 5.94 105.053 5.94C104.253 5.94 103.579 6.2 103.033 6.72C102.486 7.24 102.159 7.9 102.053 8.7H107.873ZM114.041 14.5H112.061V0.499999H114.041V14.5ZM118.804 14.5H116.824V4.44H118.804V14.5ZM118.904 2.54H116.744V0.54H118.904V2.54ZM126.732 14.5H123.832L120.292 4.44H122.372L125.092 12.26H125.492L128.212 4.44H130.292L126.732 14.5ZM135.951 14.7C135.018 14.7 134.171 14.48 133.411 14.04C132.651 13.5867 132.051 12.9667 131.611 12.18C131.184 11.38 130.971 10.4733 130.971 9.46C130.971 8.46 131.184 7.56667 131.611 6.78C132.051 5.98 132.651 5.36 133.411 4.92C134.171 4.46667 135.018 4.24 135.951 4.24C136.844 4.24 137.651 4.45333 138.371 4.88C139.104 5.30667 139.678 5.89333 140.091 6.64C140.518 7.38667 140.731 8.22667 140.731 9.16C140.731 9.62667 140.698 9.98 140.631 10.22H132.951C133.044 11.0333 133.371 11.7 133.931 12.22C134.491 12.7267 135.164 12.98 135.951 12.98C136.511 12.98 137.004 12.8533 137.431 12.6C137.858 12.3467 138.178 12.02 138.391 11.62H140.451C140.144 12.5133 139.604 13.2533 138.831 13.84C138.058 14.4133 137.098 14.7 135.951 14.7ZM138.771 8.7C138.704 7.9 138.411 7.24 137.891 6.72C137.371 6.2 136.724 5.94 135.951 5.94C135.151 5.94 134.478 6.2 133.931 6.72C133.384 7.24 133.058 7.9 132.951 8.7H138.771ZM142.86 14.5V4.44H144.56L144.76 5.48H144.86C145.113 5.16 145.5 4.87333 146.02 4.62C146.54 4.36667 147.14 4.24 147.82 4.24C148.593 4.24 149.28 4.42 149.88 4.78C150.493 5.12667 150.966 5.62 151.3 6.26C151.646 6.9 151.82 7.63333 151.82 8.46V14.5H149.84V8.62C149.84 7.9 149.606 7.3 149.14 6.82C148.673 6.34 148.093 6.1 147.4 6.1C146.933 6.1 146.5 6.21333 146.1 6.44C145.713 6.66667 145.406 6.97333 145.18 7.36C144.953 7.74667 144.84 8.16667 144.84 8.62V14.5H142.86ZM157.186 14.5C156.506 14.5 155.972 14.32 155.586 13.96C155.212 13.5867 155.026 13.0867 155.026 12.46V6.3H153.426V4.44H155.026V1.52H157.006V4.44H159.306V6.3H157.006V12.06C157.006 12.4733 157.212 12.68 157.626 12.68H159.306V14.5H157.186Z" fill="white"/>
</svg>
