<svg width="14" height="14" viewBox="0 0 14 14" fill="none" xmlns="http://www.w3.org/2000/svg">
<path fill-rule="evenodd" clip-rule="evenodd" d="M12.3944 9.22156C10.8556 7.35489 10.0885 7.52231 9.24501 7.93239C8.66109 8.21589 8.15709 8.46206 6.84692 7.15131C5.53676 5.84056 5.78234 5.33714 6.06584 4.75439C6.47709 3.91031 6.64392 3.14148 4.77551 1.60323C4.33042 1.23864 3.84509 1.09864 3.33992 1.19664C2.27067 1.39673 1.51526 2.58673 1.51642 2.58673C1.04276 3.24939 0.394091 5.24206 4.57484 9.42339C7.32467 12.1738 9.12776 12.8336 10.2221 12.8336C10.792 12.8336 11.1688 12.6551 11.387 12.4981C11.3993 12.4911 12.5998 11.7474 12.8022 10.6571C12.8967 10.1502 12.7596 9.66781 12.3944 9.22156Z" fill="white"/>
</svg>
