<svg width="24" height="24" viewBox="0 0 24 24" fill="none" xmlns="http://www.w3.org/2000/svg">
<g clip-path="url(#clip0_2640_7680)">
<path fill-rule="evenodd" clip-rule="evenodd" d="M19.7792 4.4296C20.8671 3.97153 22.0334 4.89146 21.8413 6.05615L19.5724 19.8129C19.3536 21.1393 17.8968 21.9004 16.6799 21.2394C15.6616 20.6863 14.1508 19.835 12.7892 18.9453C12.1093 18.501 10.0274 17.0764 10.2833 16.0623C10.5021 15.1952 14.002 11.9373 16.002 9.99976C16.7876 9.23869 16.4298 8.79902 15.502 9.49976C13.2004 11.2381 9.50527 13.881 8.28331 14.6248C7.20518 15.281 6.64226 15.393 5.97081 15.281C4.74468 15.0767 3.60791 14.7603 2.67983 14.3756C1.42546 13.8556 1.48656 12.1318 2.67898 11.6298L19.7792 4.4296Z" fill="white"/>
</g>
<defs>
<clipPath id="clip0_2640_7680">
<rect width="24" height="24" fill="white"/>
</clipPath>
</defs>
</svg>
