<svg width="75" height="34" viewBox="0 0 75 34" fill="none" xmlns="http://www.w3.org/2000/svg">
<path d="M3.58024 14.14C2.95491 14.14 2.41824 14.028 1.97024 13.804C1.53157 13.58 1.20024 13.3 0.976241 12.964C0.752241 12.6187 0.640241 12.2687 0.640241 11.914H2.01224C2.01224 12.2033 2.14757 12.4507 2.41824 12.656C2.69824 12.8613 3.08557 12.964 3.58024 12.964C4.07491 12.964 4.44824 12.88 4.70024 12.712C4.96157 12.5347 5.09224 12.3153 5.09224 12.054C5.09224 11.802 5.00824 11.6013 4.84024 11.452C4.67224 11.3027 4.39691 11.1953 4.01424 11.13L2.86624 10.934C1.45691 10.6913 0.752241 10.0193 0.752241 8.918C0.752241 8.31133 0.990241 7.812 1.46624 7.42C1.94224 7.01867 2.62357 6.818 3.51024 6.818C4.09824 6.818 4.60691 6.92533 5.03624 7.14C5.47491 7.35467 5.80624 7.63 6.03024 7.966C6.26358 8.302 6.38024 8.65667 6.38024 9.03H5.02224C5.02224 8.74067 4.88224 8.498 4.60224 8.302C4.33157 8.09667 3.96757 7.994 3.51024 7.994C3.06224 7.994 2.71691 8.08267 2.47424 8.26C2.24091 8.43733 2.12424 8.65667 2.12424 8.918C2.12424 9.13267 2.20357 9.31 2.36224 9.45C2.53024 9.59 2.79624 9.69267 3.16024 9.758L4.32224 9.954C5.05024 10.0753 5.58691 10.3087 5.93224 10.654C6.28691 10.9993 6.46424 11.4613 6.46424 12.04C6.46424 12.6467 6.21224 13.1507 5.70824 13.552C5.21357 13.944 4.50424 14.14 3.58024 14.14ZM11.0918 14.14C10.4385 14.14 9.84579 13.986 9.31379 13.678C8.78179 13.3607 8.36179 12.9267 8.05379 12.376C7.75512 11.816 7.60579 11.1813 7.60579 10.472C7.60579 9.772 7.75512 9.14667 8.05379 8.596C8.36179 8.036 8.78179 7.602 9.31379 7.294C9.84579 6.97667 10.4385 6.818 11.0918 6.818C11.9411 6.818 12.6505 7.056 13.2198 7.532C13.7891 8.008 14.1578 8.61933 14.3258 9.366H12.9258C12.8045 8.974 12.5851 8.666 12.2678 8.442C11.9505 8.218 11.5585 8.106 11.0918 8.106C10.7091 8.106 10.3591 8.204 10.0418 8.4C9.72445 8.596 9.47245 8.876 9.28579 9.24C9.09912 9.59467 9.00579 10.0053 9.00579 10.472C9.00579 10.9387 9.09912 11.354 9.28579 11.718C9.47245 12.082 9.72445 12.362 10.0418 12.558C10.3591 12.754 10.7091 12.852 11.0918 12.852C11.5585 12.852 11.9505 12.7353 12.2678 12.502C12.5851 12.2687 12.8045 11.9467 12.9258 11.536H14.3258C14.1578 12.3013 13.7891 12.9267 13.2198 13.412C12.6505 13.8973 11.9411 14.14 11.0918 14.14ZM15.8627 14V6.958H17.0527L17.1927 7.616H17.2627C17.4027 7.40133 17.5707 7.238 17.7667 7.126C17.9721 7.014 18.2427 6.958 18.5787 6.958H19.8107V8.26H18.7047C18.2381 8.26 17.8787 8.386 17.6267 8.638C17.3747 8.89 17.2487 9.24933 17.2487 9.716V14H15.8627ZM24.0046 14.14C23.3513 14.14 22.7586 13.986 22.2266 13.678C21.6946 13.3607 21.2746 12.9267 20.9666 12.376C20.6679 11.816 20.5186 11.1813 20.5186 10.472C20.5186 9.772 20.6679 9.14667 20.9666 8.596C21.2746 8.036 21.6946 7.602 22.2266 7.294C22.7586 6.97667 23.3513 6.818 24.0046 6.818C24.6579 6.818 25.2459 6.97667 25.7686 7.294C26.3006 7.602 26.7159 8.036 27.0146 8.596C27.3226 9.14667 27.4766 9.772 27.4766 10.472C27.4766 11.1813 27.3226 11.816 27.0146 12.376C26.7159 12.9267 26.3006 13.3607 25.7686 13.678C25.2459 13.986 24.6579 14.14 24.0046 14.14ZM24.0046 12.852C24.3873 12.852 24.7373 12.754 25.0546 12.558C25.3813 12.362 25.6379 12.082 25.8246 11.718C26.0113 11.354 26.1046 10.9387 26.1046 10.472C26.1046 10.0053 26.0113 9.59467 25.8246 9.24C25.6379 8.876 25.3813 8.596 25.0546 8.4C24.7373 8.204 24.3873 8.106 24.0046 8.106C23.6219 8.106 23.2673 8.204 22.9406 8.4C22.6233 8.596 22.3713 8.876 22.1846 9.24C21.9979 9.59467 21.9046 10.0053 21.9046 10.472C21.9046 10.9387 21.9979 11.354 22.1846 11.718C22.3713 12.082 22.6233 12.362 22.9406 12.558C23.2673 12.754 23.6219 12.852 24.0046 12.852ZM30.5597 14H29.1737V4.2H30.5597V14ZM34.104 14H32.718V4.2H34.104V14ZM42.5926 14.14C41.9859 14.14 41.4352 13.986 40.9406 13.678C40.4459 13.37 40.0539 12.936 39.7646 12.376C39.4752 11.816 39.3306 11.1813 39.3306 10.472C39.3306 9.76267 39.4752 9.13267 39.7646 8.582C40.0539 8.022 40.4459 7.588 40.9406 7.28C41.4352 6.972 41.9859 6.818 42.5926 6.818C43.4792 6.818 44.1886 7.154 44.7206 7.826H44.7906V4.2H46.1766V14H44.9866L44.8466 13.104H44.7766C44.2352 13.7947 43.5072 14.14 42.5926 14.14ZM42.7606 12.852C43.1246 12.852 43.4606 12.754 43.7686 12.558C44.0859 12.362 44.3332 12.082 44.5106 11.718C44.6972 11.354 44.7906 10.9387 44.7906 10.472C44.7906 10.0053 44.6972 9.59467 44.5106 9.24C44.3332 8.876 44.0859 8.596 43.7686 8.4C43.4606 8.204 43.1246 8.106 42.7606 8.106C42.3872 8.106 42.0466 8.204 41.7386 8.4C41.4306 8.596 41.1832 8.876 40.9966 9.24C40.8192 9.59467 40.7306 10.0053 40.7306 10.472C40.7306 10.948 40.8192 11.368 40.9966 11.732C41.1832 12.0867 41.4306 12.362 41.7386 12.558C42.0466 12.754 42.3872 12.852 42.7606 12.852ZM51.3374 14.14C50.6841 14.14 50.0914 13.986 49.5594 13.678C49.0274 13.3607 48.6074 12.9267 48.2994 12.376C48.0007 11.816 47.8514 11.1813 47.8514 10.472C47.8514 9.772 48.0007 9.14667 48.2994 8.596C48.6074 8.036 49.0274 7.602 49.5594 7.294C50.0914 6.97667 50.6841 6.818 51.3374 6.818C51.9907 6.818 52.5787 6.97667 53.1014 7.294C53.6334 7.602 54.0487 8.036 54.3474 8.596C54.6554 9.14667 54.8094 9.772 54.8094 10.472C54.8094 11.1813 54.6554 11.816 54.3474 12.376C54.0487 12.9267 53.6334 13.3607 53.1014 13.678C52.5787 13.986 51.9907 14.14 51.3374 14.14ZM51.3374 12.852C51.7201 12.852 52.0701 12.754 52.3874 12.558C52.7141 12.362 52.9707 12.082 53.1574 11.718C53.3441 11.354 53.4374 10.9387 53.4374 10.472C53.4374 10.0053 53.3441 9.59467 53.1574 9.24C52.9707 8.876 52.7141 8.596 52.3874 8.4C52.0701 8.204 51.7201 8.106 51.3374 8.106C50.9547 8.106 50.6001 8.204 50.2734 8.4C49.9561 8.596 49.7041 8.876 49.5174 9.24C49.3307 9.59467 49.2374 10.0053 49.2374 10.472C49.2374 10.9387 49.3307 11.354 49.5174 11.718C49.7041 12.082 49.9561 12.362 50.2734 12.558C50.6001 12.754 50.9547 12.852 51.3374 12.852ZM59.4638 14H57.3918L55.5298 6.958H56.9858L58.3578 12.264H58.6378L60.0238 6.958H61.8298L63.2158 12.264H63.4958L64.8678 6.958H66.3238L64.4478 14H62.3898L61.0738 8.848H60.7938L59.4638 14ZM67.5687 14V6.958H68.7587L68.8987 7.686H68.9687C69.146 7.462 69.4167 7.26133 69.7807 7.084C70.1447 6.90667 70.5647 6.818 71.0407 6.818C71.582 6.818 72.0627 6.944 72.4827 7.196C72.912 7.43867 73.2433 7.784 73.4767 8.232C73.7193 8.68 73.8407 9.19333 73.8407 9.772V14H72.4547V9.884C72.4547 9.38 72.2913 8.96 71.9647 8.624C71.638 8.288 71.232 8.12 70.7467 8.12C70.42 8.12 70.1167 8.19933 69.8367 8.358C69.566 8.51667 69.3513 8.73133 69.1927 9.002C69.034 9.27267 68.9547 9.56667 68.9547 9.884V14H67.5687Z" fill="white"/>
<path d="M38.5067 28.1334L39.82 26.82L41.96 24.68C42.4067 24.2267 42.0867 23.4534 41.4467 23.4534L37.2934 23.4534L33.5534 23.4534C32.9134 23.4534 32.5934 24.2267 33.0467 24.68L36.5 28.1334C37.0467 28.6867 37.9534 28.6867 38.5067 28.1334Z" fill="white"/>
</svg>
