<svg width="14" height="14" viewBox="0 0 14 14" fill="none" xmlns="http://www.w3.org/2000/svg">
<path d="M9.91675 2.04175H4.08341C2.33341 2.04175 1.16675 2.91675 1.16675 4.95841V9.04175C1.16675 11.0834 2.33341 11.9584 4.08341 11.9584H9.91675C11.6667 11.9584 12.8334 11.0834 12.8334 9.04175V4.95841C12.8334 2.91675 11.6667 2.04175 9.91675 2.04175ZM10.1909 5.59425L8.36508 7.05258C7.98008 7.36175 7.49008 7.51341 7.00008 7.51341C6.51008 7.51341 6.01425 7.36175 5.63508 7.05258L3.80925 5.59425C3.62258 5.44258 3.59341 5.16258 3.73925 4.97591C3.89091 4.78925 4.16508 4.75425 4.35175 4.90591L6.17758 6.36425C6.62091 6.72008 7.37341 6.72008 7.81675 6.36425L9.64258 4.90591C9.82925 4.75425 10.1092 4.78341 10.2551 4.97591C10.4067 5.16258 10.3776 5.44258 10.1909 5.59425Z" fill="white"/>
</svg>
