<svg width="161" height="160" viewBox="0 0 161 160" fill="none" xmlns="http://www.w3.org/2000/svg">
<rect x="2.5" y="2" width="156" height="156" rx="38" fill="black" stroke="url(#paint0_linear_3202_2066)" stroke-width="4"/>
<path d="M59.268 131V122.584H56.932V121.048H58.788C59.108 121.048 59.268 120.883 59.268 120.552V119.8H60.948V131H59.268ZM67.4515 131.16C66.6302 131.16 65.8782 130.936 65.1955 130.488C64.5235 130.04 63.9848 129.384 63.5795 128.52C63.1848 127.645 62.9875 126.605 62.9875 125.4C62.9875 124.195 63.1848 123.16 63.5795 122.296C63.9848 121.421 64.5235 120.76 65.1955 120.312C65.8782 119.864 66.6302 119.64 67.4515 119.64C68.2728 119.64 69.0195 119.864 69.6915 120.312C70.3742 120.76 70.9128 121.421 71.3075 122.296C71.7128 123.16 71.9155 124.195 71.9155 125.4C71.9155 126.605 71.7128 127.645 71.3075 128.52C70.9128 129.384 70.3742 130.04 69.6915 130.488C69.0195 130.936 68.2728 131.16 67.4515 131.16ZM67.4515 129.56C67.9528 129.56 68.4115 129.405 68.8275 129.096C69.2542 128.776 69.5955 128.307 69.8515 127.688C70.1075 127.059 70.2355 126.296 70.2355 125.4C70.2355 124.504 70.1075 123.747 69.8515 123.128C69.5955 122.499 69.2542 122.029 68.8275 121.72C68.4115 121.4 67.9528 121.24 67.4515 121.24C66.9502 121.24 66.4862 121.4 66.0595 121.72C65.6435 122.029 65.3075 122.499 65.0515 123.128C64.7955 123.747 64.6675 124.504 64.6675 125.4C64.6675 126.296 64.7955 127.059 65.0515 127.688C65.3075 128.307 65.6435 128.776 66.0595 129.096C66.4862 129.405 66.9502 129.56 67.4515 129.56ZM77.9828 131.16C77.1614 131.16 76.4094 130.936 75.7268 130.488C75.0548 130.04 74.5161 129.384 74.1108 128.52C73.7161 127.645 73.5188 126.605 73.5188 125.4C73.5188 124.195 73.7161 123.16 74.1108 122.296C74.5161 121.421 75.0548 120.76 75.7268 120.312C76.4094 119.864 77.1614 119.64 77.9828 119.64C78.8041 119.64 79.5508 119.864 80.2228 120.312C80.9054 120.76 81.4441 121.421 81.8388 122.296C82.2441 123.16 82.4468 124.195 82.4468 125.4C82.4468 126.605 82.2441 127.645 81.8388 128.52C81.4441 129.384 80.9054 130.04 80.2228 130.488C79.5508 130.936 78.8041 131.16 77.9828 131.16ZM77.9828 129.56C78.4841 129.56 78.9428 129.405 79.3588 129.096C79.7854 128.776 80.1268 128.307 80.3828 127.688C80.6388 127.059 80.7668 126.296 80.7668 125.4C80.7668 124.504 80.6388 123.747 80.3828 123.128C80.1268 122.499 79.7854 122.029 79.3588 121.72C78.9428 121.4 78.4841 121.24 77.9828 121.24C77.4814 121.24 77.0174 121.4 76.5908 121.72C76.1748 122.029 75.8388 122.499 75.5828 123.128C75.3268 123.747 75.1988 124.504 75.1988 125.4C75.1988 126.296 75.3268 127.059 75.5828 127.688C75.8388 128.307 76.1748 128.776 76.5908 129.096C77.0174 129.405 77.4814 129.56 77.9828 129.56ZM85.25 132.344H83.922L84.274 129.192H86.098L85.25 132.344ZM88.768 131V122.584H86.432V121.048H88.288C88.608 121.048 88.768 120.883 88.768 120.552V119.8H90.448V131H88.768ZM92.5355 131V129.576L97.1115 124.936C97.4102 124.627 97.6235 124.344 97.7515 124.088C97.8902 123.821 97.9595 123.496 97.9595 123.112C97.9595 122.568 97.7782 122.12 97.4155 121.768C97.0635 121.416 96.6102 121.24 96.0555 121.24C95.5115 121.24 95.0528 121.443 94.6795 121.848C94.3062 122.243 94.1195 122.749 94.1195 123.368H92.4395C92.4395 122.653 92.5888 122.013 92.8875 121.448C93.1968 120.883 93.6235 120.44 94.1675 120.12C94.7222 119.8 95.3515 119.64 96.0555 119.64C96.7595 119.64 97.3835 119.789 97.9275 120.088C98.4715 120.376 98.8928 120.787 99.1915 121.32C99.5008 121.843 99.6555 122.44 99.6555 123.112C99.6555 123.731 99.5275 124.264 99.2715 124.712C99.0262 125.149 98.6475 125.619 98.1355 126.12L94.9835 129.336V129.416H99.8315V131H92.5355ZM103.237 131V122.584H100.901V121.048H102.757C103.077 121.048 103.237 120.883 103.237 120.552V119.8H104.917V131H103.237Z" fill="#505050"/>
<path d="M50.96 104V93.48H48.04V91.56H50.36C50.76 91.56 50.96 91.3533 50.96 90.94V90H53.06V104H50.96ZM61.1894 104.2C60.1627 104.2 59.2227 103.92 58.3694 103.36C57.5294 102.8 56.856 101.98 56.3494 100.9C55.856 99.8067 55.6094 98.5067 55.6094 97C55.6094 95.4933 55.856 94.2 56.3494 93.12C56.856 92.0267 57.5294 91.2 58.3694 90.64C59.2227 90.08 60.1627 89.8 61.1894 89.8C62.216 89.8 63.1494 90.08 63.9894 90.64C64.8427 91.2 65.516 92.0267 66.0094 93.12C66.516 94.2 66.7694 95.4933 66.7694 97C66.7694 98.5067 66.516 99.8067 66.0094 100.9C65.516 101.98 64.8427 102.8 63.9894 103.36C63.1494 103.92 62.216 104.2 61.1894 104.2ZM61.1894 102.2C61.816 102.2 62.3894 102.007 62.9094 101.62C63.4427 101.22 63.8694 100.633 64.1894 99.86C64.5094 99.0733 64.6694 98.12 64.6694 97C64.6694 95.88 64.5094 94.9333 64.1894 94.16C63.8694 93.3733 63.4427 92.7867 62.9094 92.4C62.3894 92 61.816 91.8 61.1894 91.8C60.5627 91.8 59.9827 92 59.4494 92.4C58.9294 92.7867 58.5094 93.3733 58.1894 94.16C57.8694 94.9333 57.7094 95.88 57.7094 97C57.7094 98.12 57.8694 99.0733 58.1894 99.86C58.5094 100.633 58.9294 101.22 59.4494 101.62C59.9827 102.007 60.5627 102.2 61.1894 102.2ZM74.3534 104.2C73.3268 104.2 72.3868 103.92 71.5334 103.36C70.6934 102.8 70.0201 101.98 69.5134 100.9C69.0201 99.8067 68.7734 98.5067 68.7734 97C68.7734 95.4933 69.0201 94.2 69.5134 93.12C70.0201 92.0267 70.6934 91.2 71.5334 90.64C72.3868 90.08 73.3268 89.8 74.3534 89.8C75.3801 89.8 76.3134 90.08 77.1534 90.64C78.0068 91.2 78.6801 92.0267 79.1734 93.12C79.6801 94.2 79.9334 95.4933 79.9334 97C79.9334 98.5067 79.6801 99.8067 79.1734 100.9C78.6801 101.98 78.0068 102.8 77.1534 103.36C76.3134 103.92 75.3801 104.2 74.3534 104.2ZM74.3534 102.2C74.9801 102.2 75.5534 102.007 76.0734 101.62C76.6068 101.22 77.0334 100.633 77.3534 99.86C77.6734 99.0733 77.8334 98.12 77.8334 97C77.8334 95.88 77.6734 94.9333 77.3534 94.16C77.0334 93.3733 76.6068 92.7867 76.0734 92.4C75.5534 92 74.9801 91.8 74.3534 91.8C73.7268 91.8 73.1468 92 72.6134 92.4C72.0934 92.7867 71.6734 93.3733 71.3534 94.16C71.0334 94.9333 70.8734 95.88 70.8734 97C70.8734 98.12 71.0334 99.0733 71.3534 99.86C71.6734 100.633 72.0934 101.22 72.6134 101.62C73.1468 102.007 73.7268 102.2 74.3534 102.2ZM83.4375 105.68H81.7775L82.2175 101.74H84.4975L83.4375 105.68ZM87.835 104V93.48H84.915V91.56H87.235C87.635 91.56 87.835 91.3533 87.835 90.94V90H89.935V104H87.835ZM92.5444 104V102.22L98.2644 96.42C98.6377 96.0333 98.9044 95.68 99.0644 95.36C99.2377 95.0267 99.3244 94.62 99.3244 94.14C99.3244 93.46 99.0977 92.9 98.6444 92.46C98.2044 92.02 97.6377 91.8 96.9444 91.8C96.2644 91.8 95.691 92.0533 95.2244 92.56C94.7577 93.0533 94.5244 93.6867 94.5244 94.46H92.4244C92.4244 93.5667 92.611 92.7667 92.9844 92.06C93.371 91.3533 93.9044 90.8 94.5844 90.4C95.2777 90 96.0644 89.8 96.9444 89.8C97.8244 89.8 98.6044 89.9867 99.2844 90.36C99.9644 90.72 100.491 91.2333 100.864 91.9C101.251 92.5533 101.444 93.3 101.444 94.14C101.444 94.9133 101.284 95.58 100.964 96.14C100.658 96.6867 100.184 97.2733 99.5444 97.9L95.6044 101.92V102.02H101.664V104H92.5444ZM107.921 104.2C106.961 104.2 106.114 104.02 105.381 103.66C104.661 103.287 104.101 102.787 103.701 102.16C103.314 101.52 103.121 100.82 103.121 100.06H105.221C105.221 100.673 105.461 101.187 105.941 101.6C106.434 102.013 107.094 102.22 107.921 102.22C108.708 102.22 109.341 102.013 109.821 101.6C110.314 101.187 110.561 100.667 110.561 100.04C110.561 99.3733 110.314 98.8267 109.821 98.4C109.341 97.9733 108.694 97.76 107.881 97.76H106.981V95.92H107.881C108.654 95.92 109.261 95.72 109.701 95.32C110.141 94.9067 110.361 94.3933 110.361 93.78C110.361 93.2333 110.134 92.7667 109.681 92.38C109.228 91.98 108.634 91.78 107.901 91.78C107.194 91.78 106.601 91.98 106.121 92.38C105.654 92.78 105.421 93.2533 105.421 93.8H103.321C103.321 93.08 103.514 92.42 103.901 91.82C104.301 91.2067 104.848 90.72 105.541 90.36C106.248 89.9867 107.048 89.8 107.941 89.8C108.821 89.8 109.601 89.98 110.281 90.34C110.974 90.6867 111.508 91.16 111.881 91.76C112.268 92.36 112.461 93.0267 112.461 93.76C112.461 94.52 112.241 95.1733 111.801 95.72C111.374 96.2533 110.901 96.6133 110.381 96.8V96.9C110.954 97.0867 111.474 97.4667 111.941 98.04C112.421 98.6133 112.661 99.3133 112.661 100.14C112.661 100.873 112.461 101.553 112.061 102.18C111.661 102.793 111.101 103.287 110.381 103.66C109.661 104.02 108.841 104.2 107.921 104.2Z" fill="#999999"/>
<path d="M35.036 70V53.168H30.364V50.096H34.076C34.716 50.096 35.036 49.7653 35.036 49.104V47.6H38.396V70H35.036ZM50.763 70.32C49.1203 70.32 47.6163 69.872 46.251 68.976C44.907 68.08 43.8297 66.768 43.019 65.04C42.2297 63.2907 41.835 61.2107 41.835 58.8C41.835 56.3893 42.2297 54.32 43.019 52.592C43.8297 50.8427 44.907 49.52 46.251 48.624C47.6163 47.728 49.1203 47.28 50.763 47.28C52.4057 47.28 53.899 47.728 55.243 48.624C56.6083 49.52 57.6857 50.8427 58.475 52.592C59.2857 54.32 59.691 56.3893 59.691 58.8C59.691 61.2107 59.2857 63.2907 58.475 65.04C57.6857 66.768 56.6083 68.08 55.243 68.976C53.899 69.872 52.4057 70.32 50.763 70.32ZM50.763 67.12C51.7657 67.12 52.683 66.8107 53.515 66.192C54.3683 65.552 55.051 64.6133 55.563 63.376C56.075 62.1173 56.331 60.592 56.331 58.8C56.331 57.008 56.075 55.4933 55.563 54.256C55.051 52.9973 54.3683 52.0587 53.515 51.44C52.683 50.8 51.7657 50.48 50.763 50.48C49.7603 50.48 48.8323 50.8 47.979 51.44C47.147 52.0587 46.475 52.9973 45.963 54.256C45.451 55.4933 45.195 57.008 45.195 58.8C45.195 60.592 45.451 62.1173 45.963 63.376C46.475 64.6133 47.147 65.552 47.979 66.192C48.8323 66.8107 49.7603 67.12 50.763 67.12ZM71.1855 70.32C69.5428 70.32 68.0388 69.872 66.6735 68.976C65.3295 68.08 64.2522 66.768 63.4415 65.04C62.6522 63.2907 62.2575 61.2107 62.2575 58.8C62.2575 56.3893 62.6522 54.32 63.4415 52.592C64.2522 50.8427 65.3295 49.52 66.6735 48.624C68.0388 47.728 69.5428 47.28 71.1855 47.28C72.8282 47.28 74.3215 47.728 75.6655 48.624C77.0308 49.52 78.1082 50.8427 78.8975 52.592C79.7082 54.32 80.1135 56.3893 80.1135 58.8C80.1135 61.2107 79.7082 63.2907 78.8975 65.04C78.1082 66.768 77.0308 68.08 75.6655 68.976C74.3215 69.872 72.8282 70.32 71.1855 70.32ZM71.1855 67.12C72.1882 67.12 73.1055 66.8107 73.9375 66.192C74.7908 65.552 75.4735 64.6133 75.9855 63.376C76.4975 62.1173 76.7535 60.592 76.7535 58.8C76.7535 57.008 76.4975 55.4933 75.9855 54.256C75.4735 52.9973 74.7908 52.0587 73.9375 51.44C73.1055 50.8 72.1882 50.48 71.1855 50.48C70.1828 50.48 69.2548 50.8 68.4015 51.44C67.5695 52.0587 66.8975 52.9973 66.3855 54.256C65.8735 55.4933 65.6175 57.008 65.6175 58.8C65.6175 60.592 65.8735 62.1173 66.3855 63.376C66.8975 64.6133 67.5695 65.552 68.4015 66.192C69.2548 66.8107 70.1828 67.12 71.1855 67.12ZM85.08 72.688H82.424L83.128 66.384H86.776L85.08 72.688ZM91.476 70V53.168H86.804V50.096H90.516C91.156 50.096 91.476 49.7653 91.476 49.104V47.6H94.836V70H91.476ZM98.371 70V67.152L107.523 57.872C108.12 57.2533 108.547 56.688 108.803 56.176C109.08 55.6427 109.219 54.992 109.219 54.224C109.219 53.136 108.856 52.24 108.131 51.536C107.427 50.832 106.52 50.48 105.411 50.48C104.323 50.48 103.406 50.8853 102.659 51.696C101.912 52.4853 101.539 53.4987 101.539 54.736H98.179C98.179 53.3067 98.4777 52.0267 99.075 50.896C99.6937 49.7653 100.547 48.88 101.635 48.24C102.744 47.6 104.003 47.28 105.411 47.28C106.819 47.28 108.067 47.5787 109.155 48.176C110.243 48.752 111.086 49.5733 111.683 50.64C112.302 51.6853 112.611 52.88 112.611 54.224C112.611 55.4613 112.355 56.528 111.843 57.424C111.352 58.2987 110.595 59.2373 109.571 60.24L103.267 66.672V66.832H112.963V70H98.371ZM122.686 70.32C121.278 70.32 120.019 70.0533 118.91 69.52C117.8 68.9653 116.904 68.1973 116.222 67.216C115.56 66.2347 115.166 65.1147 115.038 63.856H118.398C118.59 64.8373 119.07 65.6373 119.838 66.256C120.627 66.8533 121.576 67.152 122.686 67.152C123.966 67.152 125.032 66.7253 125.886 65.872C126.739 65.0187 127.166 63.952 127.166 62.672C127.166 61.3493 126.76 60.272 125.95 59.44C125.139 58.608 124.083 58.192 122.782 58.192C121.928 58.192 121.171 58.3413 120.51 58.64C119.87 58.9387 119.347 59.3547 118.942 59.888H115.454L116.734 47.6H129.246V50.736H119.614L119.006 56.304H119.166C120.168 55.5147 121.502 55.12 123.166 55.12C124.51 55.12 125.736 55.4507 126.846 56.112C127.976 56.752 128.872 57.648 129.534 58.8C130.195 59.952 130.526 61.2427 130.526 62.672C130.526 64.1227 130.195 65.4347 129.534 66.608C128.872 67.76 127.944 68.6667 126.75 69.328C125.555 69.9893 124.2 70.32 122.686 70.32Z" fill="white"/>
<path d="M79.634 23.5C80.0189 22.8333 80.9811 22.8333 81.366 23.5L84.8301 29.5C85.215 30.1667 84.7339 31 83.9641 31H77.0359C76.2661 31 75.785 30.1667 76.1699 29.5L79.634 23.5Z" fill="#00FF47"/>
<defs>
<linearGradient id="paint0_linear_3202_2066" x1="80.5" y1="0" x2="80.5" y2="160" gradientUnits="userSpaceOnUse">
<stop stop-color="#303030"/>
<stop offset="1" stop-color="white" stop-opacity="0"/>
</linearGradient>
</defs>
</svg>
