<svg width="217" height="160" viewBox="0 0 217 160" fill="none" xmlns="http://www.w3.org/2000/svg">
<mask id="path-1-inside-1_3202_1503" fill="white">
<path d="M0.5 40C0.5 17.9086 18.4086 0 40.5 0H86.5C88.7091 0 90.5 1.79086 90.5 4V156C90.5 158.209 88.7091 160 86.5 160H40.5C18.4086 160 0.5 142.091 0.5 120V40Z"/>
</mask>
<path d="M0.5 40C0.5 17.9086 18.4086 0 40.5 0H86.5C88.7091 0 90.5 1.79086 90.5 4V156C90.5 158.209 88.7091 160 86.5 160H40.5C18.4086 160 0.5 142.091 0.5 120V40Z" fill="black" stroke="black" stroke-width="20" mask="url(#path-1-inside-1_3202_1503)"/>
<path fill-rule="evenodd" clip-rule="evenodd" d="M96.5 0H99.5V160H96.5V0ZM168.5 0H171.5V160H168.5V0ZM135.5 0H132.5V160H135.5V0ZM204.5 0H207.5V160H204.5V0ZM117.5 0H114.5V160H117.5V0ZM186.5 0H189.5V160H186.5V0ZM153.5 0H150.5V160H153.5V0ZM105.5 0H108.5V160H105.5V0ZM180.5 0H177.5V160H180.5V0ZM141.5 0H144.5V160H141.5V0ZM126.5 0H123.5V160H126.5V0ZM195.5 0H198.5V160H195.5V0ZM162.5 0H159.5V160H162.5V0Z" fill="url(#paint0_linear_3202_1503)"/>
<path d="M38.836 74.584C37.8973 74.584 37.0333 74.36 36.244 73.912C35.4547 73.4427 34.8253 72.8133 34.356 72.024C33.908 71.2347 33.684 70.3707 33.684 69.432C33.684 68.4933 33.9187 67.6293 34.388 66.84C34.8573 66.0507 35.4867 65.432 36.276 64.984C37.0653 64.5147 37.9187 64.28 38.836 64.28C39.7533 64.28 40.6067 64.5147 41.396 64.984C42.1853 65.432 42.8147 66.0507 43.284 66.84C43.7533 67.6293 43.988 68.4933 43.988 69.432C43.988 70.3707 43.7533 71.2347 43.284 72.024C42.836 72.8133 42.2173 73.4427 41.428 73.912C40.6387 74.36 39.7747 74.584 38.836 74.584ZM40.468 87H36.596L50.516 64.6H54.388L40.468 87ZM38.836 71.704C39.4333 71.704 39.9347 71.5013 40.34 71.096C40.7453 70.6693 40.948 70.1147 40.948 69.432C40.948 68.7707 40.7453 68.2267 40.34 67.8C39.9347 67.3733 39.4333 67.16 38.836 67.16C38.26 67.16 37.7587 67.3733 37.332 67.8C36.9267 68.2267 36.724 68.7707 36.724 69.432C36.724 70.0933 36.9267 70.6373 37.332 71.064C37.7587 71.4907 38.26 71.704 38.836 71.704ZM52.148 87.32C51.2307 87.32 50.3773 87.096 49.588 86.648C48.7987 86.1787 48.1693 85.5493 47.7 84.76C47.2307 83.9707 46.996 83.1067 46.996 82.168C46.996 81.2293 47.22 80.3653 47.668 79.576C48.1373 78.7653 48.7667 78.136 49.556 77.688C50.3453 77.2187 51.2093 76.984 52.148 76.984C53.0867 76.984 53.9507 77.2187 54.74 77.688C55.5293 78.136 56.148 78.7653 56.596 79.576C57.0653 80.3653 57.3 81.2293 57.3 82.168C57.3 83.1067 57.0653 83.9707 56.596 84.76C56.1267 85.5493 55.4973 86.1787 54.708 86.648C53.9187 87.096 53.0653 87.32 52.148 87.32ZM52.148 84.44C52.724 84.44 53.2147 84.2267 53.62 83.8C54.0467 83.3733 54.26 82.8293 54.26 82.168C54.26 81.5067 54.0467 80.9627 53.62 80.536C53.2147 80.088 52.724 79.864 52.148 79.864C51.5507 79.864 51.0493 80.0773 50.644 80.504C50.2387 80.9307 50.036 81.4853 50.036 82.168C50.036 82.8293 50.2387 83.3733 50.644 83.8C51.0493 84.2267 51.5507 84.44 52.148 84.44Z" fill="white"/>
<defs>
<linearGradient id="paint0_linear_3202_1503" x1="34.2232" y1="74.5" x2="271.679" y2="74.5" gradientUnits="userSpaceOnUse">
<stop/>
<stop offset="1" stop-opacity="0"/>
</linearGradient>
</defs>
</svg>
