<svg width="161" height="160" viewBox="0 0 161 160" fill="none" xmlns="http://www.w3.org/2000/svg">
<circle cx="80.5" cy="80" r="80" fill="black"/>
<path d="M80 18C67.8364 18 55.9461 21.6069 45.8324 28.3646C35.7188 35.1223 27.8362 44.7273 23.1814 55.965C18.5266 67.2026 17.3087 79.5682 19.6817 91.4981C22.0547 103.428 27.912 114.386 36.5129 122.987C45.1139 131.588 56.0721 137.445 68.002 139.818C79.9318 142.191 92.2974 140.973 103.535 136.319C114.773 131.664 124.378 123.781 131.135 113.668C137.893 103.554 141.5 91.6635 141.5 79.5" stroke="url(#paint0_linear_3202_1713)" stroke-width="12" stroke-linecap="round" stroke-dasharray="2 2"/>
<path d="M58.7 92.96H54.14V85.64H47.42V81.16H54.14V73.84H58.7V81.16H65.42V85.64H58.7V92.96ZM73.7759 95V74.88H68.0559V70.04H72.5759C73.3759 70.04 73.7759 69.6133 73.7759 68.76V67H78.9759V95H73.7759ZM94.8559 95.4C92.7226 95.4 90.7759 94.84 89.0159 93.72C87.2826 92.5733 85.9093 90.92 84.8959 88.76C83.8826 86.5733 83.3759 83.9867 83.3759 81C83.3759 78.0133 83.8826 75.44 84.8959 73.28C85.9093 71.0933 87.2826 69.44 89.0159 68.32C90.7759 67.1733 92.7226 66.6 94.8559 66.6C96.9893 66.6 98.9226 67.1733 100.656 68.32C102.416 69.44 103.803 71.0933 104.816 73.28C105.829 75.44 106.336 78.0133 106.336 81C106.336 83.9867 105.829 86.5733 104.816 88.76C103.803 90.92 102.416 92.5733 100.656 93.72C98.9226 94.84 96.9893 95.4 94.8559 95.4ZM94.8559 90.4C96.0026 90.4 97.0426 90.0533 97.9759 89.36C98.9359 88.64 99.6959 87.5733 100.256 86.16C100.843 84.7467 101.136 83.0267 101.136 81C101.136 78.9733 100.843 77.2533 100.256 75.84C99.6959 74.4267 98.9359 73.3733 97.9759 72.68C97.0426 71.96 96.0026 71.6 94.8559 71.6C93.7359 71.6 92.6959 71.96 91.7359 72.68C90.7759 73.3733 90.0026 74.4267 89.4159 75.84C88.8559 77.2533 88.5759 78.9733 88.5759 81C88.5759 83.0267 88.8559 84.7467 89.4159 86.16C90.0026 87.5733 90.7759 88.64 91.7359 89.36C92.6959 90.0533 93.7359 90.4 94.8559 90.4Z" fill="white"/>
<defs>
<linearGradient id="paint0_linear_3202_1713" x1="-14.0407" y1="144.731" x2="92.2308" y2="38.459" gradientUnits="userSpaceOnUse">
<stop stop-color="white"/>
<stop offset="1" stop-opacity="0"/>
</linearGradient>
</defs>
</svg>
