<svg width="229" height="160" viewBox="0 0 229 160" fill="none" xmlns="http://www.w3.org/2000/svg">
<rect x="0.5" y="82" width="150" height="78" rx="20" fill="black"/>
<path d="M52.5 119.75C52.91 119.75 53.25 119.41 53.25 119V118C53.25 113.59 51.91 112.25 47.5 112.25H41.25V114.5C41.25 114.91 40.91 115.25 40.5 115.25C40.09 115.25 39.75 114.91 39.75 114.5V112.25H37.5C33.09 112.25 31.75 113.59 31.75 118V118.5C31.75 118.91 32.09 119.25 32.5 119.25C33.46 119.25 34.25 120.04 34.25 121C34.25 121.96 33.46 122.75 32.5 122.75C32.09 122.75 31.75 123.09 31.75 123.5V124C31.75 128.41 33.09 129.75 37.5 129.75H39.75V127.5C39.75 127.09 40.09 126.75 40.5 126.75C40.91 126.75 41.25 127.09 41.25 127.5V129.75H47.5C51.91 129.75 53.25 128.41 53.25 124C53.25 123.59 52.91 123.25 52.5 123.25C51.54 123.25 50.75 122.46 50.75 121.5C50.75 120.54 51.54 119.75 52.5 119.75ZM41.25 123.17C41.25 123.58 40.91 123.92 40.5 123.92C40.09 123.92 39.75 123.58 39.75 123.17V118.83C39.75 118.42 40.09 118.08 40.5 118.08C40.91 118.08 41.25 118.42 41.25 118.83V123.17Z" fill="white"/>
<path d="M79.454 127.5V125.898L84.602 120.678C84.938 120.33 85.178 120.012 85.322 119.724C85.478 119.424 85.556 119.058 85.556 118.626C85.556 118.014 85.352 117.51 84.944 117.114C84.548 116.718 84.038 116.52 83.414 116.52C82.802 116.52 82.286 116.748 81.866 117.204C81.446 117.648 81.236 118.218 81.236 118.914H79.346C79.346 118.11 79.514 117.39 79.85 116.754C80.198 116.118 80.678 115.62 81.29 115.26C81.914 114.9 82.622 114.72 83.414 114.72C84.206 114.72 84.908 114.888 85.52 115.224C86.132 115.548 86.606 116.01 86.942 116.61C87.29 117.198 87.464 117.87 87.464 118.626C87.464 119.322 87.32 119.922 87.032 120.426C86.756 120.918 86.33 121.446 85.754 122.01L82.208 125.628V125.718H87.662V127.5H79.454ZM91.4929 127.5H89.4409V125.466H91.4929V127.5ZM94.6042 127.5V118.032H91.9762V116.304H94.0642C94.4242 116.304 94.6042 116.118 94.6042 115.746V114.9H96.4942V127.5H94.6042ZM98.8427 127.5V125.898L103.991 120.678C104.327 120.33 104.567 120.012 104.711 119.724C104.867 119.424 104.945 119.058 104.945 118.626C104.945 118.014 104.741 117.51 104.333 117.114C103.937 116.718 103.427 116.52 102.803 116.52C102.191 116.52 101.675 116.748 101.255 117.204C100.835 117.648 100.625 118.218 100.625 118.914H98.7347C98.7347 118.11 98.9027 117.39 99.2387 116.754C99.5867 116.118 100.067 115.62 100.679 115.26C101.303 114.9 102.011 114.72 102.803 114.72C103.595 114.72 104.297 114.888 104.909 115.224C105.521 115.548 105.995 116.01 106.331 116.61C106.679 117.198 106.853 117.87 106.853 118.626C106.853 119.322 106.709 119.922 106.421 120.426C106.145 120.918 105.719 121.446 105.143 122.01L101.597 125.628V125.718H107.051V127.5H98.8427ZM113.69 127.68C112.766 127.68 111.92 127.428 111.152 126.924C110.396 126.42 109.79 125.682 109.334 124.71C108.89 123.726 108.668 122.556 108.668 121.2C108.668 119.844 108.89 118.68 109.334 117.708C109.79 116.724 110.396 115.98 111.152 115.476C111.92 114.972 112.766 114.72 113.69 114.72C114.614 114.72 115.454 114.972 116.21 115.476C116.978 115.98 117.584 116.724 118.028 117.708C118.484 118.68 118.712 119.844 118.712 121.2C118.712 122.556 118.484 123.726 118.028 124.71C117.584 125.682 116.978 126.42 116.21 126.924C115.454 127.428 114.614 127.68 113.69 127.68ZM113.69 125.88C114.254 125.88 114.77 125.706 115.238 125.358C115.718 124.998 116.102 124.47 116.39 123.774C116.678 123.066 116.822 122.208 116.822 121.2C116.822 120.192 116.678 119.34 116.39 118.644C116.102 117.936 115.718 117.408 115.238 117.06C114.77 116.7 114.254 116.52 113.69 116.52C113.126 116.52 112.604 116.7 112.124 117.06C111.656 117.408 111.278 117.936 110.99 118.644C110.702 119.34 110.558 120.192 110.558 121.2C110.558 122.208 110.702 123.066 110.99 123.774C111.278 124.47 111.656 124.998 112.124 125.358C112.604 125.706 113.126 125.88 113.69 125.88Z" fill="white"/>
<rect x="152.5" y="82" width="76" height="78" rx="20" fill="black"/>
<path d="M194.69 111H186.31C182.67 111 180.5 113.17 180.5 116.81V125.18C180.5 128.83 182.67 131 186.31 131H194.68C198.32 131 200.49 128.83 200.49 125.19V116.81C200.5 113.17 198.33 111 194.69 111ZM187.61 125.9C187.61 126.18 187.39 126.4 187.11 126.4H184.32C184.04 126.4 183.82 126.18 183.82 125.9V121.28C183.82 120.65 184.33 120.14 184.96 120.14H187.11C187.39 120.14 187.61 120.36 187.61 120.64V125.9ZM192.39 125.9C192.39 126.18 192.17 126.4 191.89 126.4H189.1C188.82 126.4 188.6 126.18 188.6 125.9V116.74C188.6 116.11 189.11 115.6 189.74 115.6H191.26C191.89 115.6 192.4 116.11 192.4 116.74V125.9H192.39ZM197.18 125.9C197.18 126.18 196.96 126.4 196.68 126.4H193.89C193.61 126.4 193.39 126.18 193.39 125.9V122.35C193.39 122.07 193.61 121.85 193.89 121.85H196.04C196.67 121.85 197.18 122.36 197.18 122.99V125.9Z" fill="#F5F5F5"/>
<rect x="0.5" width="80" height="80" rx="20" fill="black"/>
<path d="M44.5 30H36.5C33.74 30 31.5 32.24 31.5 35V45C31.5 47.76 33.74 50 36.5 50H44.5C47.26 50 49.5 47.76 49.5 45V35C49.5 32.24 47.26 30 44.5 30ZM37.36 46.63C37.17 46.82 36.92 46.92 36.66 46.92C36.39 46.92 36.14 46.82 35.95 46.63C35.76 46.44 35.65 46.19 35.65 45.92C35.65 45.66 35.76 45.4 35.95 45.21C36.04 45.12 36.15 45.05 36.27 45C36.52 44.9 36.79 44.9 37.04 45C37.1 45.02 37.16 45.05 37.21 45.09C37.27 45.12 37.32 45.17 37.36 45.21C37.55 45.4 37.66 45.66 37.66 45.92C37.66 46.19 37.55 46.44 37.36 46.63ZM35.65 41.92C35.65 41.79 35.68 41.66 35.73 41.54C35.78 41.41 35.85 41.31 35.95 41.21C36.18 40.98 36.53 40.87 36.85 40.94C36.91 40.95 36.98 40.97 37.04 41C37.1 41.02 37.16 41.05 37.21 41.09C37.27 41.12 37.32 41.17 37.36 41.21C37.45 41.31 37.53 41.41 37.58 41.54C37.63 41.66 37.65 41.79 37.65 41.92C37.65 42.19 37.55 42.44 37.36 42.63C37.17 42.82 36.92 42.92 36.66 42.92C36.52 42.92 36.39 42.89 36.27 42.84C36.15 42.79 36.04 42.72 35.95 42.63C35.76 42.44 35.65 42.19 35.65 41.92ZM41.36 46.63C41.27 46.72 41.16 46.79 41.04 46.84C40.92 46.89 40.79 46.92 40.65 46.92C40.39 46.92 40.14 46.82 39.95 46.63C39.76 46.44 39.65 46.19 39.65 45.92C39.65 45.85 39.66 45.79 39.67 45.72C39.69 45.66 39.71 45.6 39.73 45.54C39.76 45.48 39.79 45.42 39.82 45.36C39.86 45.31 39.9 45.26 39.95 45.21C40.04 45.12 40.15 45.05 40.27 45C40.64 44.85 41.08 44.93 41.36 45.21C41.55 45.4 41.65 45.66 41.65 45.92C41.65 46.19 41.55 46.44 41.36 46.63ZM41.36 42.63C41.17 42.82 40.92 42.92 40.65 42.92C40.39 42.92 40.14 42.82 39.95 42.63C39.76 42.44 39.65 42.19 39.65 41.92C39.65 41.66 39.76 41.4 39.95 41.21C40.32 40.84 40.99 40.84 41.36 41.21C41.45 41.31 41.53 41.41 41.58 41.54C41.63 41.66 41.65 41.79 41.65 41.92C41.65 42.19 41.55 42.44 41.36 42.63ZM37.5 38.46C36.47 38.46 35.62 37.62 35.62 36.58V35.58C35.62 34.55 36.46 33.7 37.5 33.7H43.5C44.53 33.7 45.38 34.54 45.38 35.58V36.58C45.38 37.61 44.54 38.46 43.5 38.46H37.5ZM45.36 46.63C45.17 46.82 44.92 46.92 44.65 46.92C44.52 46.92 44.39 46.89 44.27 46.84C44.15 46.79 44.04 46.72 43.95 46.63C43.76 46.44 43.66 46.19 43.66 45.92C43.66 45.66 43.76 45.4 43.95 45.21C44.22 44.93 44.67 44.85 45.04 45C45.16 45.05 45.27 45.12 45.36 45.21C45.55 45.4 45.65 45.66 45.65 45.92C45.65 46.19 45.55 46.44 45.36 46.63ZM45.58 42.3C45.53 42.42 45.46 42.53 45.36 42.63C45.17 42.82 44.92 42.92 44.65 42.92C44.39 42.92 44.14 42.82 43.95 42.63C43.76 42.44 43.65 42.19 43.65 41.92C43.65 41.66 43.76 41.4 43.95 41.21C44.32 40.84 44.99 40.84 45.36 41.21C45.55 41.4 45.66 41.66 45.66 41.92C45.66 42.05 45.63 42.18 45.58 42.3Z" fill="#F5F5F5"/>
<rect x="82.5" width="144" height="80" rx="20" fill="black"/>
<path d="M134.5 30H122.5C120.84 30 119.5 31.33 119.5 32.97V43.88C119.5 45.52 120.84 46.85 122.5 46.85H123.26C124.06 46.85 124.82 47.16 125.38 47.72L127.09 49.41C127.87 50.18 129.14 50.18 129.92 49.41L131.63 47.72C132.19 47.16 132.96 46.85 133.75 46.85H134.5C136.16 46.85 137.5 45.52 137.5 43.88V32.97C137.5 31.33 136.16 30 134.5 30ZM128.5 33.75C129.79 33.75 130.83 34.79 130.83 36.08C130.83 37.37 129.79 38.41 128.5 38.41C127.21 38.41 126.17 37.36 126.17 36.08C126.17 34.79 127.21 33.75 128.5 33.75ZM131.18 43.06H125.82C125.01 43.06 124.54 42.16 124.99 41.49C125.67 40.48 126.99 39.8 128.5 39.8C130.01 39.8 131.33 40.48 132.01 41.49C132.46 42.16 131.98 43.06 131.18 43.06Z" fill="#F5F5F5"/>
<path d="M170.224 45.492H168.514V42.09H165.382V40.47H168.514V37.068H170.224V40.47H173.356V42.09H170.224V45.492ZM177.335 46.5V37.032H174.707V35.304H176.795C177.155 35.304 177.335 35.118 177.335 34.746V33.9H179.225V46.5H177.335ZM186.541 46.68C185.617 46.68 184.771 46.428 184.003 45.924C183.247 45.42 182.641 44.682 182.185 43.71C181.741 42.726 181.519 41.556 181.519 40.2C181.519 38.844 181.741 37.68 182.185 36.708C182.641 35.724 183.247 34.98 184.003 34.476C184.771 33.972 185.617 33.72 186.541 33.72C187.465 33.72 188.305 33.972 189.061 34.476C189.829 34.98 190.435 35.724 190.879 36.708C191.335 37.68 191.563 38.844 191.563 40.2C191.563 41.556 191.335 42.726 190.879 43.71C190.435 44.682 189.829 45.42 189.061 45.924C188.305 46.428 187.465 46.68 186.541 46.68ZM186.541 44.88C187.105 44.88 187.621 44.706 188.089 44.358C188.569 43.998 188.953 43.47 189.241 42.774C189.529 42.066 189.673 41.208 189.673 40.2C189.673 39.192 189.529 38.34 189.241 37.644C188.953 36.936 188.569 36.408 188.089 36.06C187.621 35.7 187.105 35.52 186.541 35.52C185.977 35.52 185.455 35.7 184.975 36.06C184.507 36.408 184.129 36.936 183.841 37.644C183.553 38.34 183.409 39.192 183.409 40.2C183.409 41.208 183.553 42.066 183.841 42.774C184.129 43.47 184.507 43.998 184.975 44.358C185.455 44.706 185.977 44.88 186.541 44.88Z" fill="#F5F5F5"/>
</svg>
